<svg xmlns="http://www.w3.org/2000/svg" viewBox="0 0 128 128" fill="none" aria-hidden="true">
  <path d="M21 76c16-22 38-35 64-36 11 0 20 2 28 6-7 17-22 32-44 40-18 7-34 5-48-10Z" stroke="#e2e8f0" stroke-width="8" stroke-linecap="round" stroke-linejoin="round"/>
  <path d="M31 71c18 9 39 7 61-7" stroke="#34d399" stroke-width="7" stroke-linecap="round"/>
  <path d="M31 72c-8-10-11-22-8-36 15 5 25 14 30 29" stroke="#34d399" stroke-width="8" stroke-linecap="round" stroke-linejoin="round"/>
  <path d="M77 34c4-13 13-21 27-25 1 16-5 28-19 36" stroke="#e2e8f0" stroke-width="8" stroke-linecap="round" stroke-linejoin="round"/>
  <path d="M65 24c11 1 18 7 22 18" stroke="#fbbf24" stroke-width="7" stroke-linecap="round"/>
  <path d="M60 96c12-2 23 2 31 12-13 5-25 3-36-6" stroke="#34d399" stroke-width="7" stroke-linecap="round" stroke-linejoin="round"/>
  <circle cx="97" cy="55" r="3" fill="#fbbf24"/>
  <circle cx="52" cy="89" r="4" fill="#e2e8f0"/>
</svg>